<svg width="24" height="24" viewBox="0 0 24 24" fill="none" xmlns="http://www.w3.org/2000/svg">
<path d="M14 12.75C14 11.7835 13.1046 11 12 11C10.8954 11 10 11.7835 10 12.75C10 13.7165 10.8954 14.5 12 14.5C13.1046 14.5 14 15.2835 14 16.25C14 17.2165 13.1046 18 12 18C10.8954 18 10 17.2165 10 16.25" stroke="#838383" stroke-width="1.5" stroke-linecap="round"/>
<path d="M12 9.5V11" stroke="#838383" stroke-width="1.5" stroke-linecap="round" stroke-linejoin="round"/>
<path d="M12 18V19.5" stroke="#838383" stroke-width="1.5" stroke-linecap="round" stroke-linejoin="round"/>
<path d="M5.63246 11.1026C6.44914 8.65258 8.74197 7 11.3246 7H12.6754C15.258 7 17.5509 8.65258 18.3675 11.1026L19.3675 14.1026C20.6626 17.9878 17.7708 22 13.6754 22H10.3246C6.22921 22 3.33739 17.9878 4.63246 14.1026L5.63246 11.1026Z" stroke="#838383" stroke-width="1.5" stroke-linejoin="round"/>
<path d="M14.0859 7L9.91411 7L8.51303 5.39296C7.13959 3.81763 8.74185 1.46298 10.7471 2.10985L11.6748 2.40914C11.8861 2.47728 12.1139 2.47728 12.3252 2.40914L13.2529 2.10985C15.2582 1.46298 16.8604 3.81763 15.487 5.39296L14.0859 7Z" stroke="#838383" stroke-width="1.5" stroke-linejoin="round"/>
</svg>
