<svg width="76" height="54" viewBox="0 0 76 54" fill="none" xmlns="http://www.w3.org/2000/svg">
<path d="M20.8667 2.62106C18.911 2.931 17.5625 4.63838 17.5625 6.62125C17.5624 9.16872 18.3139 11.6596 19.7228 13.782C21.1317 15.9044 23.1355 17.564 25.4831 18.5529C11.3656 24.7861 1.25 41.0171 1.25 54.4531C1.25 71.4707 17.4791 77.5625 37.5 77.5625C57.5209 77.5625 73.75 71.4707 73.75 54.4531C73.75 41.0171 63.6308 24.7861 49.5169 18.5511C51.8645 17.5622 53.8683 15.9026 55.2772 13.7802C56.6861 11.6578 57.4376 9.16691 57.4375 6.61944C57.4375 4.63838 56.089 2.931 54.1333 2.62106C50.8346 2.09725 45.1578 1.4375 37.5 1.4375C29.8422 1.4375 24.1636 2.09725 20.8667 2.62106Z" stroke="black" stroke-width="2.71875" stroke-linecap="round" stroke-linejoin="round"/>
</svg>
