<svg width="27" height="29" viewBox="0 0 27 29" fill="none" xmlns="http://www.w3.org/2000/svg">
<path d="M7.57579 1.35923C6.87894 1.46967 6.39844 2.07804 6.39844 2.78458C6.39841 3.6923 6.66617 4.57986 7.1682 5.33611C7.67023 6.09237 8.3842 6.68372 9.22073 7.0361C4.19033 9.25712 0.585938 15.0406 0.585938 19.8281C0.585938 25.8919 6.36873 28.0625 13.5026 28.0625C20.6365 28.0625 26.4193 25.8919 26.4193 19.8281C26.4193 15.0406 22.8136 9.25713 17.7845 7.03546C18.621 6.68307 19.335 6.09173 19.837 5.33547C20.339 4.57921 20.6068 3.69166 20.6068 2.78394C20.6068 2.07804 20.1263 1.46967 19.4294 1.35923C18.254 1.17258 16.2313 0.9375 13.5026 0.9375C10.774 0.9375 8.75056 1.17258 7.57579 1.35923Z" stroke="black" stroke-linecap="round" stroke-linejoin="round"/>
</svg>
