<svg width="81" height="58" viewBox="0 0 81 58" fill="none" xmlns="http://www.w3.org/2000/svg">
<g opacity="0.05">
<path d="M20.8667 6.62106C18.911 6.931 17.5625 8.63838 17.5625 10.6213C17.5624 13.1687 18.3139 15.6596 19.7228 17.782C21.1317 19.9044 23.1355 21.564 25.4831 22.5529C11.3656 28.7861 1.25 45.0171 1.25 58.4531C1.25 75.4707 17.4791 81.5625 37.5 81.5625C57.5209 81.5625 73.75 75.4707 73.75 58.4531C73.75 45.0171 63.6308 28.7861 49.5169 22.5511C51.8645 21.5622 53.8683 19.9026 55.2772 17.7802C56.6861 15.6578 57.4376 13.1669 57.4375 10.6194C57.4375 8.63838 56.089 6.931 54.1333 6.62106C50.8346 6.09725 45.1578 5.4375 37.5 5.4375C29.8422 5.4375 24.1636 6.09725 20.8667 6.62106Z" stroke="black" stroke-width="2.71875" stroke-linecap="round" stroke-linejoin="round"/>
<path d="M46.4957 54.2979C46.3871 55.2427 46.1211 56.1821 45.6975 57.116L37.3572 58.8916C37.4332 57.9359 37.6721 56.9966 38.074 56.0735L46.4957 54.2979ZM37.3572 53.5649V48.2218L34.702 48.7757V51.7567C34.702 52.0282 34.6314 52.2725 34.4902 52.4897L33.1382 54.4934C32.7581 55.0038 32.2802 55.3296 31.7047 55.4708L24.2766 57.0346C24.3852 56.068 24.6458 55.1287 25.0585 54.2165L32.1119 52.7015V49.3295L25.4983 50.7305C25.6178 49.7096 25.8784 48.7703 26.2802 47.9123L32.1119 46.6906V36.2978C32.8612 35.3747 33.7246 34.6416 34.702 34.0987V46.0879L37.3572 45.5503V37.6009C38.0631 36.6779 38.9264 35.9448 39.9473 35.4018V45.0128L46.4957 43.6118C46.3871 44.5349 46.1211 45.4797 45.6975 46.4463L39.9473 47.668V50.3395L46.4957 48.9549C46.398 49.8345 46.1319 50.7848 45.6975 51.8056L37.3572 53.5649Z" fill="black"/>
</g>
</svg>
