<svg width="204" height="151" viewBox="0 0 204 151" fill="none" xmlns="http://www.w3.org/2000/svg">
<path d="M-8.2202 170.424C-8.2202 228.732 39.067 276 97.3987 276C155.73 276 203.018 228.732 203.018 170.424C203.018 112.117 155.73 64.8491 97.3987 64.8491C39.067 64.8491 -8.2202 112.117 -8.2202 170.424Z" fill="url(#paint0_linear_59_22488)"/>
<path d="M-73.3275 71.5093C-73.3275 110.9 -41.3816 142.833 -1.97433 142.833C37.433 142.833 69.3789 110.9 69.3789 71.5093C69.3789 32.1183 37.433 0.185547 -1.97433 0.185547C-41.3816 0.185547 -73.3275 32.1183 -73.3275 71.5093Z" fill="url(#paint1_linear_59_22488)"/>
<defs>
<linearGradient id="paint0_linear_59_22488" x1="-8.22012" y1="170.424" x2="203.012" y2="170.424" gradientUnits="userSpaceOnUse">
<stop stop-color="#5A46E6"/>
<stop offset="1" stop-color="#2DC8C7"/>
</linearGradient>
<linearGradient id="paint1_linear_59_22488" x1="-1.97165" y1="0.185831" x2="-1.97165" y2="142.836" gradientUnits="userSpaceOnUse">
<stop offset="0.0119139" stop-color="#5A46E6"/>
<stop offset="1" stop-color="#2AD2C5"/>
</linearGradient>
</defs>
</svg>
