<svg width="24" height="24" viewBox="0 0 24 24" fill="none" xmlns="http://www.w3.org/2000/svg">
<path fill-rule="evenodd" clip-rule="evenodd" d="M15.6013 5.25H8.39728C7.23483 3.67982 8.80095 1.48227 10.7464 2.10985L11.6741 2.40914C11.8854 2.47728 12.1132 2.47728 12.3244 2.40914L13.2522 2.10985C15.1976 1.48227 16.7637 3.67982 15.6013 5.25ZM8.50545 6.75H15.4931C16.8124 7.48048 17.8431 8.70013 18.315 10.2104L19.565 14.2104C20.7724 18.0739 17.886 22 13.8381 22H10.1604C6.11259 22 3.22618 18.0739 4.43355 14.2104L5.68355 10.2103C6.1555 8.70013 7.18618 7.48048 8.50545 6.75ZM12.7493 9.5C12.7493 9.08579 12.4135 8.75 11.9993 8.75C11.5851 8.75 11.2493 9.08579 11.2493 9.5V10.3462C10.1432 10.6338 9.24927 11.5427 9.24927 12.75C9.24927 14.2217 10.5777 15.25 11.9993 15.25C12.7868 15.25 13.2493 15.7887 13.2493 16.25C13.2493 16.7113 12.7868 17.25 11.9993 17.25C11.2117 17.25 10.7493 16.7113 10.7493 16.25C10.7493 15.8358 10.4135 15.5 9.99927 15.5C9.58505 15.5 9.24927 15.8358 9.24927 16.25C9.24927 17.4573 10.1432 18.3662 11.2493 18.6538V19.5C11.2493 19.9142 11.5851 20.25 11.9993 20.25C12.4135 20.25 12.7493 19.9142 12.7493 19.5V18.6538C13.8553 18.3662 14.7493 17.4573 14.7493 16.25C14.7493 14.7783 13.4208 13.75 11.9993 13.75C11.2117 13.75 10.7493 13.2113 10.7493 12.75C10.7493 12.2887 11.2117 11.75 11.9993 11.75C12.7868 11.75 13.2493 12.2887 13.2493 12.75C13.2493 13.1642 13.5851 13.5 13.9993 13.5C14.4135 13.5 14.7493 13.1642 14.7493 12.75C14.7493 11.5427 13.8553 10.6338 12.7493 10.3462V9.5Z" fill="#5A46E6"/>
</svg>
